<svg xmlns="http://www.w3.org/2000/svg" xmlns:xlink="http://www.w3.org/1999/xlink" id="Camada_2" data-name="Camada 2" viewBox="0 0 106.53 35.62"><defs><style>      .cls-1 {        fill: #388e36;      }      .cls-2 {        clip-path: url(#clippath);      }      .cls-3 {        fill: #050505;      }      .cls-4 {        fill: #efc300;      }    </style><clipPath id="clippath"><rect class="cls-1" width="28.34" height="35.62" rx="2.36" ry="2.36"></rect></clipPath></defs><g id="Camada_1-2" data-name="Camada 1"><g><g><g><path class="cls-3" d="M38.56,9.05c-.7,0-1.32-.12-1.84-.37-.52-.25-.96-.57-1.3-.97-.34-.4-.6-.84-.76-1.31-.17-.47-.25-.92-.25-1.35v-.24c0-.48,.09-.96,.26-1.43,.18-.47,.44-.9,.79-1.29,.35-.38,.78-.69,1.3-.92,.52-.23,1.12-.35,1.8-.35s1.28,.12,1.8,.35c.52,.23,.95,.54,1.3,.92s.61,.81,.79,1.29c.18,.47,.27,.95,.27,1.43v.24c0,.43-.09,.88-.26,1.35-.17,.47-.43,.9-.77,1.31-.34,.4-.77,.72-1.3,.97-.52,.25-1.14,.37-1.84,.37Zm0-1.63c.37,0,.7-.06,1-.19,.29-.13,.55-.31,.76-.53,.21-.23,.37-.49,.47-.79,.11-.3,.16-.62,.16-.96,0-.36-.05-.69-.16-1-.11-.3-.27-.57-.48-.79-.21-.22-.46-.4-.75-.52-.29-.12-.62-.18-.99-.18s-.7,.06-.99,.18c-.29,.12-.54,.29-.75,.52s-.37,.49-.47,.79c-.11,.3-.16,.63-.16,1,0,.34,.05,.66,.16,.96,.11,.3,.27,.56,.47,.79s.46,.41,.75,.53,.62,.19,.99,.19Z"></path><path class="cls-3" d="M46.28,8.84V1.06h2.41l1.78,4.37h.2l1.76-4.37h2.45v7.79h-1.73V2.2l.25,.02-2.06,5.05h-1.66l-2.07-5.05,.27-.02v6.65h-1.6Z"></path><path class="cls-3" d="M59.22,9.05c-.5,0-.94-.09-1.32-.26-.38-.17-.7-.4-.95-.69-.25-.29-.45-.61-.58-.97-.13-.36-.2-.73-.2-1.1v-.21c0-.39,.06-.77,.2-1.12,.13-.36,.32-.68,.57-.97,.25-.28,.56-.51,.93-.68s.8-.25,1.27-.25c.63,0,1.15,.14,1.58,.42,.43,.28,.76,.65,.99,1.1,.23,.45,.34,.94,.34,1.48v.58h-5.17v-.97h4.14l-.55,.45c0-.35-.05-.65-.15-.9-.1-.25-.25-.44-.44-.57-.2-.13-.44-.2-.73-.2s-.55,.07-.76,.2c-.21,.13-.36,.33-.47,.59-.11,.26-.16,.58-.16,.95,0,.35,.05,.65,.15,.91s.26,.46,.47,.6c.21,.14,.49,.21,.83,.21,.31,0,.57-.06,.77-.18s.33-.27,.41-.45h1.57c-.09,.39-.25,.74-.5,1.05-.25,.31-.56,.54-.94,.71-.38,.17-.81,.26-1.3,.26Z"></path><path class="cls-3" d="M62.58,2.32V1.06h2.41v1.26h-2.41Zm.69,6.53V1.06h1.72v7.79h-1.72Z"></path><path class="cls-3" d="M66.56,8.84V1.06h1.71V5.55h-.26c0-.59,.07-1.09,.22-1.49,.15-.41,.37-.71,.66-.92s.66-.31,1.1-.31h.08c.65,0,1.14,.23,1.48,.69,.34,.46,.51,1.13,.51,2.01v3.33h-1.71v-3.43c0-.32-.09-.58-.28-.77-.19-.2-.44-.29-.74-.29-.32,0-.58,.1-.77,.31-.2,.21-.29,.48-.29,.82v3.37h-1.71Z"></path><path class="cls-3" d="M76.36,9.05c-.51,0-.97-.08-1.37-.24s-.73-.38-1.01-.66-.48-.6-.62-.95c-.14-.36-.21-.74-.21-1.14v-.25c0-.41,.07-.79,.22-1.16,.15-.37,.36-.69,.64-.96s.62-.5,1.02-.66,.84-.24,1.33-.24,.96,.08,1.35,.24,.73,.38,1.01,.66,.49,.6,.64,.96c.15,.37,.22,.75,.22,1.16v.25c0,.4-.07,.78-.21,1.14-.14,.36-.35,.68-.62,.95-.28,.28-.61,.5-1.01,.66-.4,.16-.86,.24-1.38,.24Zm0-1.44c.33,0,.61-.07,.83-.21,.22-.14,.39-.34,.51-.6s.18-.54,.18-.85c0-.33-.06-.63-.18-.88-.12-.25-.29-.45-.52-.6-.22-.15-.5-.22-.82-.22s-.58,.07-.81,.22c-.23,.15-.4,.35-.52,.6-.12,.25-.18,.55-.18,.88,0,.31,.06,.6,.17,.85,.12,.26,.29,.46,.51,.6,.23,.14,.5,.21,.82,.21Z"></path><path class="cls-3" d="M80.78,8.84V3h1.35v2.51h-.03c0-.82,.18-1.46,.53-1.91,.35-.45,.86-.67,1.53-.67h.22v1.47h-.43c-.47,0-.83,.13-1.09,.38-.26,.25-.38,.62-.38,1.09v2.98h-1.71Z"></path></g><g><path class="cls-3" d="M34.41,20.4v-7.79h1.75v7.79h-1.75Z"></path><path class="cls-3" d="M37.84,20.4v-5.84h1.36v2.51h-.1c0-.6,.08-1.09,.23-1.49,.15-.4,.39-.7,.7-.9s.69-.3,1.14-.3h.08c.68,0,1.2,.22,1.56,.67,.36,.44,.54,1.12,.54,2.02v3.34h-1.71v-3.43c0-.31-.09-.57-.28-.77-.19-.2-.44-.3-.75-.3s-.58,.1-.77,.3c-.2,.2-.29,.47-.29,.79v3.4h-1.71Z"></path><path class="cls-3" d="M45.88,20.4l-1.75-5.84h1.76l1.64,5.84h-1.65Zm.53,0v-1.42h1.72v1.42h-1.72Zm.63,0l1.42-5.84h1.64l-1.52,5.84h-1.54Z"></path><path class="cls-3" d="M53.65,20.61c-.5,0-.94-.09-1.32-.26-.38-.17-.7-.4-.95-.69-.25-.29-.45-.61-.58-.97-.13-.36-.2-.73-.2-1.1v-.21c0-.39,.06-.77,.2-1.12,.13-.36,.32-.68,.57-.97,.25-.28,.56-.51,.93-.68s.8-.25,1.27-.25c.63,0,1.15,.14,1.58,.42,.43,.28,.76,.65,.99,1.1,.23,.45,.34,.94,.34,1.48v.58h-5.17v-.97h4.14l-.55,.45c0-.35-.05-.65-.15-.9-.1-.25-.25-.44-.44-.57-.2-.13-.44-.2-.73-.2s-.55,.07-.76,.2c-.21,.13-.36,.33-.47,.59-.11,.26-.16,.58-.16,.95,0,.35,.05,.65,.15,.91s.26,.46,.47,.6c.21,.14,.49,.21,.83,.21,.31,0,.57-.06,.77-.18s.33-.27,.41-.45h1.57c-.09,.39-.25,.74-.5,1.05-.25,.31-.56,.54-.94,.71-.38,.17-.81,.26-1.3,.26Z"></path><path class="cls-3" d="M59.85,20.59c-.83,0-1.48-.17-1.95-.51-.47-.34-.72-.82-.75-1.44h1.51c.03,.18,.14,.35,.34,.5s.49,.22,.88,.22c.3,0,.54-.05,.74-.16,.2-.1,.29-.25,.29-.44,0-.17-.07-.31-.22-.41-.15-.1-.42-.18-.8-.22l-.46-.04c-.7-.07-1.23-.27-1.58-.59-.35-.32-.53-.73-.53-1.23,0-.41,.1-.76,.31-1.03,.21-.28,.49-.49,.86-.63,.37-.14,.78-.21,1.25-.21,.75,0,1.36,.17,1.82,.5,.46,.33,.7,.81,.72,1.43h-1.52c-.03-.19-.13-.35-.3-.49-.17-.13-.42-.2-.76-.2-.26,0-.47,.05-.63,.15-.16,.1-.24,.23-.24,.41s.07,.29,.2,.37,.36,.15,.66,.18l.46,.04c.72,.08,1.28,.28,1.67,.6s.6,.75,.6,1.29c0,.39-.11,.73-.32,1.02s-.52,.51-.91,.66c-.39,.15-.85,.23-1.38,.23Z"></path><path class="cls-3" d="M62.86,15.81v-1.25h4.18v1.25h-4.18Zm3.36,4.67c-.59,0-1.07-.07-1.43-.22-.36-.15-.63-.39-.79-.74-.17-.34-.25-.81-.25-1.4v-5.14h1.59v5.21c0,.28,.07,.49,.22,.63,.14,.15,.35,.22,.62,.22h.87v1.44h-.82Z"></path><path class="cls-3" d="M67.69,15.82v-1.26h2.48v1.26h-2.48Zm1.44-1.83c-.32,0-.56-.08-.71-.25-.15-.17-.23-.38-.23-.63s.08-.48,.23-.65c.15-.17,.39-.25,.71-.25s.56,.08,.71,.25c.15,.17,.23,.38,.23,.65s-.08,.47-.23,.63-.39,.25-.71,.25Zm-.66,6.42v-5.84h1.71v5.84h-1.71Z"></path><path class="cls-3" d="M71.75,20.4v-5.84h1.36v2.52h-.1c0-.6,.07-1.09,.22-1.49,.15-.4,.37-.7,.67-.9,.3-.2,.66-.3,1.1-.3h.07c.44,0,.81,.1,1.11,.3,.29,.2,.52,.5,.67,.9,.15,.4,.23,.9,.23,1.49h-.42c0-.6,.08-1.09,.23-1.49,.15-.4,.38-.7,.68-.9,.3-.2,.67-.3,1.1-.3h.07c.44,0,.81,.1,1.12,.3,.3,.2,.53,.5,.69,.9s.23,.9,.23,1.49v3.33h-1.71v-3.42c0-.32-.08-.58-.25-.78-.17-.2-.4-.3-.71-.3s-.55,.1-.73,.3c-.18,.2-.27,.47-.27,.81v3.39h-1.72v-3.42c0-.32-.08-.58-.25-.78-.17-.2-.4-.3-.7-.3-.31,0-.56,.1-.74,.3-.18,.2-.27,.47-.27,.81v3.39h-1.71Z"></path><path class="cls-3" d="M84.92,20.61c-.5,0-.94-.09-1.32-.26-.38-.17-.7-.4-.95-.69s-.44-.61-.58-.97c-.13-.36-.2-.73-.2-1.1v-.21c0-.39,.07-.77,.2-1.12,.13-.36,.32-.68,.57-.97,.25-.28,.56-.51,.93-.68s.8-.25,1.28-.25c.62,0,1.15,.14,1.58,.42,.43,.28,.76,.65,.99,1.1,.23,.45,.34,.94,.34,1.48v.58h-5.17v-.97h4.14l-.55,.45c0-.35-.05-.65-.15-.9-.1-.25-.25-.44-.44-.57s-.44-.2-.73-.2-.55,.07-.76,.2c-.21,.13-.36,.33-.47,.59-.11,.26-.16,.58-.16,.95,0,.35,.05,.65,.15,.91s.26,.46,.47,.6c.21,.14,.49,.21,.83,.21,.31,0,.57-.06,.77-.18s.33-.27,.4-.45h1.57c-.09,.39-.25,.74-.5,1.05-.25,.31-.56,.54-.94,.71-.38,.17-.81,.26-1.3,.26Z"></path><path class="cls-3" d="M88.89,20.4v-5.84h1.36v2.51h-.1c0-.6,.08-1.09,.23-1.49,.15-.4,.39-.7,.7-.9s.69-.3,1.14-.3h.08c.68,0,1.2,.22,1.56,.67,.36,.44,.54,1.12,.54,2.02v3.34h-1.71v-3.43c0-.31-.09-.57-.28-.77-.19-.2-.44-.3-.75-.3s-.58,.1-.77,.3c-.2,.2-.29,.47-.29,.79v3.4h-1.71Z"></path><path class="cls-3" d="M95.14,15.81v-1.25h4.18v1.25h-4.18Zm3.36,4.67c-.59,0-1.07-.07-1.43-.22-.36-.15-.63-.39-.79-.74s-.25-.81-.25-1.4v-5.14h1.59v5.21c0,.28,.07,.49,.22,.63,.15,.15,.35,.22,.62,.22h.86v1.44h-.82Z"></path><path class="cls-3" d="M103.31,20.61c-.51,0-.97-.08-1.37-.24-.4-.16-.73-.38-1.01-.66-.27-.28-.48-.6-.62-.95-.14-.36-.21-.74-.21-1.14v-.25c0-.41,.07-.79,.22-1.16,.14-.37,.36-.69,.64-.96s.62-.5,1.02-.66,.84-.24,1.33-.24,.95,.08,1.35,.24,.73,.38,1.01,.66,.49,.6,.64,.96c.15,.37,.22,.75,.22,1.16v.25c0,.4-.07,.78-.21,1.14-.14,.36-.35,.68-.62,.95s-.61,.5-1.01,.66-.86,.24-1.38,.24Zm0-1.44c.33,0,.61-.07,.83-.21,.22-.14,.39-.34,.51-.6s.18-.54,.18-.85c0-.33-.06-.63-.18-.88-.12-.25-.29-.45-.52-.6-.22-.15-.5-.22-.81-.22s-.58,.07-.81,.22c-.23,.15-.4,.35-.52,.6-.12,.25-.18,.55-.18,.88,0,.31,.06,.6,.17,.85s.28,.46,.51,.6c.23,.14,.5,.21,.82,.21Z"></path></g><g><path class="cls-3" d="M37.19,33.17c-.41,0-.79-.08-1.13-.22-.34-.15-.63-.36-.88-.62-.25-.27-.44-.58-.57-.94-.13-.36-.2-.75-.2-1.17v-.25c0-.42,.06-.81,.19-1.17,.12-.36,.31-.68,.54-.96s.52-.49,.86-.64c.34-.15,.71-.23,1.12-.23,.47,0,.88,.1,1.21,.3,.34,.2,.61,.5,.8,.9,.19,.39,.3,.88,.32,1.46l-.45-.42v-4.01h1.72v7.79h-1.36v-2.42h.23c-.02,.55-.14,1.03-.35,1.42-.21,.39-.49,.69-.85,.89-.36,.2-.77,.3-1.23,.3Zm.43-1.43c.26,0,.5-.06,.72-.18s.39-.29,.52-.52c.13-.23,.2-.5,.2-.82v-.39c0-.31-.07-.58-.2-.79-.14-.21-.31-.38-.54-.49-.22-.11-.46-.17-.71-.17-.29,0-.54,.07-.76,.22-.22,.15-.4,.35-.53,.6-.13,.25-.19,.55-.19,.88s.06,.64,.19,.89c.13,.25,.3,.44,.53,.58,.23,.13,.48,.2,.77,.2Z"></path><path class="cls-3" d="M45.12,33.18c-.51,0-.97-.08-1.37-.24-.4-.16-.73-.38-1.01-.66-.27-.28-.48-.6-.62-.95-.14-.36-.21-.74-.21-1.14v-.25c0-.41,.07-.79,.22-1.16,.14-.37,.36-.69,.64-.96s.62-.5,1.02-.66,.84-.24,1.33-.24,.95,.08,1.35,.24,.73,.38,1.01,.66,.49,.6,.64,.96c.15,.37,.22,.75,.22,1.16v.25c0,.4-.07,.78-.21,1.14-.14,.36-.35,.68-.62,.95s-.61,.5-1.01,.66-.86,.24-1.38,.24Zm0-1.44c.33,0,.61-.07,.83-.21,.22-.14,.39-.34,.51-.6s.18-.54,.18-.85c0-.33-.06-.63-.18-.88-.12-.25-.29-.45-.52-.6-.22-.15-.5-.22-.81-.22s-.58,.07-.81,.22c-.23,.15-.4,.35-.52,.6-.12,.25-.18,.55-.18,.88,0,.31,.06,.6,.17,.85s.28,.46,.51,.6c.23,.14,.5,.21,.82,.21Z"></path><path class="cls-3" d="M51.87,33.03v-7.9h1.71v7.9h-1.71Zm1.49-3.59v-1.05h1.54c.33,0,.57-.08,.72-.26,.15-.17,.22-.4,.22-.68s-.08-.53-.22-.7c-.15-.17-.39-.26-.72-.26h-1.54v-1.37h1.43c.9,0,1.58,.19,2.06,.57,.48,.38,.72,.91,.72,1.61v.16c0,.48-.12,.87-.37,1.16-.25,.29-.58,.5-.99,.62-.42,.12-.89,.19-1.42,.19h-1.43Zm0,3.59v-1.37h1.82c.33,0,.57-.09,.74-.26,.16-.17,.24-.41,.24-.72s-.08-.55-.24-.72c-.16-.17-.41-.25-.74-.25h-1.82v-1.06h1.74c.54,0,1.02,.07,1.44,.2,.42,.13,.75,.34,.99,.63,.24,.29,.36,.69,.36,1.18v.15c0,.46-.11,.86-.32,1.19-.21,.33-.53,.58-.94,.76-.41,.17-.93,.26-1.54,.26h-1.74Z"></path><path class="cls-3" d="M59.16,32.98v-5.84h1.36v2.51h-.03c0-.82,.18-1.46,.53-1.91,.35-.45,.86-.67,1.53-.67h.22v1.47h-.43c-.47,0-.83,.13-1.09,.38-.26,.25-.38,.62-.38,1.09v2.98h-1.71Z"></path><path class="cls-3" d="M65.28,33.13c-.42,0-.79-.08-1.1-.22-.32-.15-.56-.37-.74-.65-.18-.28-.27-.62-.27-1.01,0-.43,.11-.78,.33-1.05s.53-.48,.93-.61c.4-.13,.86-.2,1.38-.2h1.25v.95h-1.26c-.3,0-.53,.07-.69,.22s-.24,.34-.24,.59,.08,.42,.24,.57c.16,.15,.39,.22,.69,.22,.19,0,.37-.03,.52-.1s.28-.18,.38-.35c.1-.16,.16-.39,.17-.68l.41,.43c-.04,.41-.13,.75-.29,1.02-.16,.28-.38,.49-.66,.64-.28,.15-.62,.22-1.03,.22Zm1.87-.15v-1.73h-.29v-1.88c0-.3-.07-.52-.21-.67s-.37-.22-.68-.22c-.16,0-.36,0-.62,.01s-.52,.02-.79,.03c-.27,.01-.52,.03-.73,.04v-1.44c.16-.01,.36-.03,.58-.04,.22-.01,.45-.02,.68-.03,.23,0,.46-.01,.66-.01,.6,0,1.1,.09,1.51,.26,.41,.17,.72,.43,.93,.77,.21,.35,.32,.79,.32,1.33v3.58h-1.35Z"></path><path class="cls-3" d="M72.17,33.16c-.83,0-1.48-.17-1.95-.51-.47-.34-.72-.82-.75-1.44h1.52c.03,.18,.14,.35,.34,.5,.2,.15,.49,.22,.88,.22,.3,0,.55-.05,.74-.16,.2-.1,.29-.25,.29-.44,0-.17-.07-.31-.22-.41-.15-.1-.42-.18-.8-.22l-.46-.04c-.71-.07-1.23-.27-1.58-.59-.35-.32-.53-.73-.53-1.23,0-.41,.1-.76,.31-1.03,.21-.28,.49-.49,.86-.63,.37-.14,.78-.21,1.25-.21,.75,0,1.36,.17,1.82,.5,.46,.33,.7,.81,.72,1.43h-1.51c-.03-.19-.13-.35-.3-.49s-.42-.2-.76-.2c-.26,0-.47,.05-.63,.15s-.23,.23-.23,.41,.07,.29,.2,.37c.13,.08,.36,.15,.66,.18l.46,.04c.72,.08,1.28,.28,1.68,.6,.4,.32,.6,.75,.6,1.29,0,.39-.11,.73-.32,1.02-.21,.29-.52,.51-.91,.66-.39,.15-.85,.23-1.38,.23Z"></path><path class="cls-3" d="M75.38,28.39v-1.26h2.48v1.26h-2.48Zm1.44-1.83c-.32,0-.56-.08-.71-.25-.15-.17-.23-.38-.23-.63s.08-.48,.23-.65c.15-.17,.39-.25,.71-.25s.56,.08,.71,.25c.15,.17,.23,.38,.23,.65s-.08,.47-.23,.63-.39,.25-.71,.25Zm-.66,6.42v-5.84h1.71v5.84h-1.71Z"></path><path class="cls-3" d="M78.83,26.45v-1.26h2.41v1.26h-2.41Zm.69,6.53v-7.79h1.72v7.79h-1.72Z"></path></g></g><g><rect class="cls-1" width="28.34" height="35.62" rx="2.36" ry="2.36"></rect><g class="cls-2"><polyline class="cls-4" points="-45.81 17.81 -13.99 38.13 17.83 17.81 -13.99 -2.51 -45.81 17.81"></polyline></g></g></g></g></svg>